<svg xmlns="http://www.w3.org/2000/svg" viewBox="0 0 500 500"><g id="freepik--background-simple--inject-1"><path d="M92.85,108.39c27.92-59.45,127.06-51.07,165.31-9.26s50.7,68.6,85.21,53,78.52-11.44,81.05,38.17S386.5,298.54,322.33,315.89s-64.17,78.76-149.1,66.37c-46.31-6.75-47.37-56.86-40.83-98.3S60.47,177.33,92.85,108.39Z" style="fill:#4697F3"></path><path d="M92.85,108.39c27.92-59.45,127.06-51.07,165.31-9.26s50.7,68.6,85.21,53,78.52-11.44,81.05,38.17S386.5,298.54,322.33,315.89s-64.17,78.76-149.1,66.37c-46.31-6.75-47.37-56.86-40.83-98.3S60.47,177.33,92.85,108.39Z" style="fill:#fff;opacity:0.9"></path></g><g id="freepik--Shadow--inject-1"><ellipse id="freepik--path--inject-1" cx="250" cy="416.24" rx="193.89" ry="11.32" style="fill:#f5f5f5"></ellipse></g><g id="freepik--Chart--inject-1"><rect x="73.28" y="229.22" width="11.94" height="172.29" style="fill:#4697F3"></rect><rect x="96.25" y="265.73" width="11.94" height="135.78" style="fill:#4697F3"></rect><rect x="119.22" y="294.22" width="11.94" height="107.29" style="fill:#4697F3"></rect><rect x="142.19" y="319.45" width="11.94" height="82.06" style="fill:#4697F3"></rect><rect x="165.15" y="341.52" width="11.94" height="60" style="fill:#4697F3"></rect><rect x="188.12" y="357.48" width="11.94" height="44.03" style="fill:#4697F3"></rect><rect x="211.09" y="370.6" width="11.94" height="30.91" style="fill:#4697F3"></rect><g style="opacity:0.7000000000000001"><rect x="73.28" y="229.22" width="11.94" height="172.29" style="fill:#fff"></rect><rect x="96.25" y="265.73" width="11.94" height="135.78" style="fill:#fff"></rect><rect x="119.22" y="294.22" width="11.94" height="107.29" style="fill:#fff"></rect><rect x="142.19" y="319.45" width="11.94" height="82.06" style="fill:#fff"></rect><rect x="165.15" y="341.52" width="11.94" height="60" style="fill:#fff"></rect><rect x="188.12" y="357.48" width="11.94" height="44.03" style="fill:#fff"></rect><rect x="211.09" y="370.6" width="11.94" height="30.91" style="fill:#fff"></rect></g></g><g id="freepik--Arrow--inject-1"><polygon points="71.62 182.6 69.21 196.09 82.69 190.69 71.62 182.6" style="fill:#4697F3"></polygon><path d="M240,375.83c-63.11-30.1-105.49-77.91-129.94-112.71C83.6,225.42,72.18,195.25,71.71,194l7.49-2.8c.11.3,11.62,30.64,37.56,67.54C140.64,292.68,182,339.3,243.45,368.61Z" style="fill:#4697F3"></path></g><g id="freepik--Floor--inject-1"><path d="M358.36,405.38s-8-15.52-6-17,6,13,6,11.84-.23-20.86,3.45-20.08,0,18.95,0,18.95,4.94-9.28,6.88-8.58S363,402.21,363,402.21s4.57-2.76,5.72-2.55-5.72,5.72-5.72,5.72Z" style="fill:#4697F3"></path><path d="M143.66,409.73s8-15.51,6-17-5.94,13-6,11.83.23-20.85-3.45-20.07,0,19,0,19-6.87-13.12-8.7-9.77c-1.58,2.9,7.53,12.93,7.53,12.93s-9.06-6.14-9.11-3.44c-.05,2.9,9.11,6.6,9.11,6.6Z" style="fill:#4697F3"></path><path d="M265.58,396.68s-7.55-9.39-4.65-10.25,4.89,6.95,5.4,5.92.18-11.35,5-9.8-1.8,10.35-1.8,10.35,4.36-3.33,5.53-2.48-5.23,7-5.23,7Z" style="fill:#4697F3"></path><path d="M196.46,385.15s5.1-10.91,2.08-11.06-4,8.3-4,8.3-1.7-11.32-6.22-9.75c-4.79,1.66,3.46,10.58,3.46,10.58s-7.92-5-8.44-2.24c-.65,3.4,10.23,5.43,10.23,5.43Z" style="fill:#4697F3"></path><polygon points="116.53 416.91 385.88 416.91 374.81 404.92 294.57 396.47 266.51 396.47 246.24 380.05 193.6 384.34 150.37 400.54 141.48 408.74 127.67 408.74 116.53 416.91" style="fill:#263238"></polygon><polygon points="116.53 416.91 385.88 416.91 374.81 404.92 294.57 396.47 266.51 396.47 246.24 380.05 193.6 384.34 150.37 400.54 141.48 408.74 127.67 408.74 116.53 416.91" style="fill:#fff;opacity:0.5"></polygon><polygon points="141.48 408.74 169.83 413.57 185.18 413.57 167.78 410.56 150.37 400.54 141.48 408.74" style="opacity:0.2"></polygon><polygon points="266.51 396.47 251.21 396.47 226.59 405.24 239.25 392.73 257.54 389.21 266.51 396.47" style="opacity:0.2"></polygon><polygon points="374.81 404.92 345.8 413.57 320.61 407.06 343.03 416.91 385.88 416.91 374.81 404.92" style="opacity:0.2"></polygon></g><g id="freepik--Character--inject-1"><polygon points="236.6 386.58 229.59 384.6 232.19 367.82 239.19 369.8 236.6 386.58" style="fill:#e4897b"></polygon><path d="M229.44,378.73h8.87a.62.62,0,0,1,.62.49l1.51,6.47a1.07,1.07,0,0,1-1.06,1.3c-2.85-.05-4.94-.22-8.53-.22-2.21,0-8.88.23-11.94.23s-3.48-3-2.23-3.29c5.59-1.23,9.8-2.92,11.58-4.54A1.74,1.74,0,0,1,229.44,378.73Z" style="fill:#263238"></path><polygon points="349.63 406.03 342.51 407.53 337.02 391.46 344.14 389.97 349.63 406.03" style="fill:#e4897b"></polygon><path d="M287.29,247.29S254,284,245.05,298.48s-16.8,75.9-16.8,75.9l13.24,3.2s15.4-59.85,19.5-65.85,47.65-46.62,47.65-46.62Z" style="fill:#263238"></path><path d="M308.64,265.11l-4.32,4c-3.6,3.39-9.08,8.54-14.95,14.15-12.22,11.64-26.14,25.16-28.38,28.43-4.1,6-19.5,65.86-19.5,65.86l-13.24-3.21s7.82-61.38,16.81-75.89,42.23-51.19,42.23-51.19Z" style="fill:#fff;opacity:0.1"></path><path d="M304.32,269.15c-3.6,3.39-9.08,8.54-14.95,14.15,3.89-10.55,13.29-17.38,13.29-17.38Z" style="opacity:0.2"></path><path d="M298.87,249.92s8.55,62.42,12.68,83.37c4.52,22.94,24.65,65.51,24.65,65.51l13-2.74s-13.71-39.35-16.75-62.38c-3.39-25.76-8.48-84-8.48-84Z" style="fill:#263238"></path><g style="opacity:0.1"><path d="M298.87,249.92s8.55,62.42,12.68,83.37c4.52,22.94,24.65,65.51,24.65,65.51l13-2.74s-13.71-39.35-16.75-62.38c-3.39-25.76-8.48-84-8.48-84Z" style="fill:#fff"></path></g><path d="M248.17,171.89l-.57-7.4,7.67,3s.11,6.63-3.31,6.54Z" style="fill:#e4897b"></path><polygon points="250.58 160.22 257.83 160.68 255.27 167.46 247.6 164.49 250.58 160.22" style="fill:#e4897b"></polygon><polygon points="247.91 173.19 248.11 171.14 254.31 172.41 253.82 174.56 247.91 173.19" style="fill:#4697F3"></polygon><polygon points="247.91 173.19 248.11 171.14 254.31 172.41 253.82 174.56 247.91 173.19" style="fill:#fff;opacity:0.7000000000000001"></polygon><path d="M277.48,162.2H261.43c-.57,0-1,1.23-1,2.74s.46,2.73,1,2.73h16.05c.56,0,1-1.22,1-2.73S278,162.2,277.48,162.2Z" style="fill:#4697F3"></path><path d="M277.48,162.2H261.43c-.57,0-1,1.23-1,2.74s.46,2.73,1,2.73h16.05c.56,0,1-1.22,1-2.73S278,162.2,277.48,162.2Z" style="fill:#fff;opacity:0.4"></path><path d="M261.19,161.45H242c-.72,0-1.3,1.56-1.3,3.49s.58,3.48,1.3,3.48h19.15c.72,0,1.31-1.56,1.31-3.48S261.91,161.45,261.19,161.45Z" style="fill:#4697F3"></path><path d="M261.19,161.45H242c-.72,0-1.3,1.56-1.3,3.49s.58,3.48,1.3,3.48h19.15c.72,0,1.31-1.56,1.31-3.48S261.91,161.45,261.19,161.45Z" style="fill:#fff;opacity:0.2"></path><path d="M242.31,160.75h-20c-.87,0-1.57,1.87-1.57,4.19s.7,4.18,1.57,4.18h20c.86,0,1.57-1.87,1.57-4.18S243.17,160.75,242.31,160.75Z" style="fill:#4697F3"></path><path d="M242.31,160.75h-20c-.87,0-1.57,1.87-1.57,4.19s.7,4.18,1.57,4.18h20c.86,0,1.57-1.87,1.57-4.18S243.17,160.75,242.31,160.75Z" style="fill:#fff;opacity:0.4"></path><path d="M223.87,164.94c0,2.31-.7,4.18-1.57,4.18s-1.57-1.87-1.57-4.18.7-4.19,1.57-4.19S223.87,162.62,223.87,164.94Z" style="fill:#fff;opacity:0.2"></path><path d="M222.3,168.65c-.39,0-1.1-1.41-1.1-3.71s.71-3.72,1.1-3.72,1.09,1.41,1.09,3.72S222.69,168.65,222.3,168.65Z"></path><path d="M339.92,400.27h8.87a.65.65,0,0,1,.63.5l1.5,6.47a1.06,1.06,0,0,1-1.05,1.29c-2.86,0-4.94-.21-8.54-.21-2.21,0-8.88.23-11.94.23s-3.48-3-2.23-3.3c5.59-1.22,9.8-2.91,11.58-4.53A1.75,1.75,0,0,1,339.92,400.27Z" style="fill:#263238"></path><path d="M274.65,190.42s-3.94,1-8.12,1.59c-2.1.3-4.18.59-6.19.8-1,.1-2,.16-2.89.21h-.53a22.45,22.45,0,0,1-.64-2.16c-.47-1.9-.86-4-1.2-6.06-.67-4.17-.87-11.27-.87-11.27L247.77,172a99.52,99.52,0,0,0-.93,13.5,62.6,62.6,0,0,0,.38,7,27.41,27.41,0,0,0,.71,3.84,12.92,12.92,0,0,0,.82,2.3,9.4,9.4,0,0,0,.85,1.45,7.17,7.17,0,0,0,1.89,1.81,7.89,7.89,0,0,0,.81.44,9.18,9.18,0,0,0,1,.34l.69.17c.47.11.83.16,1.23.22.74.1,1.43.16,2.08.2,1.29.08,2.51.07,3.69,0,2.37,0,4.65-.22,6.91-.45,4.53-.45,8.9-1.12,13.36-2Z" style="fill:#263238"></path><path d="M316.31,188.05a148.29,148.29,0,0,0,1.17,22.79c.66,5.63,1.52,11,2.42,15.8,2.1,11.34,4.38,19.86,4.75,22.84l-39,5.72c-15.52-41.51-10.11-64.94-10.11-64.94a76.48,76.48,0,0,1,9.23-2.52c.66-.14,1.33-.26,2-.37a144,144,0,0,1,16.59-1.21c1,0,2.09,0,3.11,0A32.41,32.41,0,0,1,316.31,188.05Z" style="fill:#4697F3"></path><path d="M316.31,188.05a148.29,148.29,0,0,0,1.17,22.79c.66,5.63,1.52,11,2.42,15.8,2.1,11.34,4.38,19.86,4.75,22.84l-39,5.72c-15.52-41.51-10.11-64.94-10.11-64.94a76.48,76.48,0,0,1,9.23-2.52c.66-.14,1.33-.26,2-.37a144,144,0,0,1,16.59-1.21c1,0,2.09,0,3.11,0A32.41,32.41,0,0,1,316.31,188.05Z" style="fill:#fff;opacity:0.7000000000000001"></path><path d="M290.25,196.79c-.49,3-2,10.79-2,18.45.72,1.48,1.69,5.1,2.56,6.57.64-1.67,1.75-5.12,2.51-6.81-.67-7.28-2-14.58-1.57-18.4Z" style="fill:#4697F3"></path><polygon points="290.71 199.09 288.8 195.69 291.22 194.15 293.36 195.04 290.71 199.09" style="fill:#4697F3"></polygon><path d="M298.53,169.07c-.18,5.41.36,15.19,4.62,18.13a16.42,16.42,0,0,1-11.81,6.94c-4.55.59-4.39-3.22-3.67-5.12,4.74-2,3.89-5.93,2.2-9.86Z" style="fill:#e4897b"></path><path d="M291.22,194.15s2,1.93,4.4,3.8c2.74-2,9.11-7.27,8.27-11.15a4,4,0,0,0-2.17-1.56A43,43,0,0,1,291.22,194.15Z" style="fill:#fff"></path><path d="M291.22,194.15A21.11,21.11,0,0,0,288,199c-2.36-1.19-1.52-9-.83-9.89a10.41,10.41,0,0,1,3.74-3A11.3,11.3,0,0,0,291.22,194.15Z" style="fill:#fff"></path><path d="M295,173.19l-5.12,6a17.12,17.12,0,0,1,1,2.82c2.2-.67,4.88-3.6,4.73-6A7.92,7.92,0,0,0,295,173.19Z" style="opacity:0.2"></path><path d="M279.84,156.58c-1.12,2.71-1.12,8.49,2.93,7S281.76,151.91,279.84,156.58Z" style="fill:#263238"></path><path d="M299.63,162.06c-.18,7.21.08,11.44-3.43,15.24-5.27,5.7-14.3,2.64-16.28-4.5-1.78-6.43-1.19-17.14,5.77-20.2A10,10,0,0,1,299.63,162.06Z" style="fill:#e4897b"></path><path d="M295.27,149.82c-.26,0-.46.11-.67.11,0,0,.62,14.1,3.86,17.18C306.75,164.77,311,149.06,295.27,149.82Z" style="fill:#263238"></path><path d="M302.63,168a6.79,6.79,0,0,1-3.24,4.09c-2.11,1.14-3.72-.62-3.6-2.9.11-2,1.34-5.11,3.68-5.31A3.12,3.12,0,0,1,302.63,168Z" style="fill:#e4897b"></path><path d="M282.13,164.54c0,.58-.28,1.07-.66,1.08s-.71-.46-.73-1.05.27-1.07.65-1.08S282.1,164,282.13,164.54Z" style="fill:#263238"></path><path d="M284.25,164.77a20.13,20.13,0,0,1-2.68,4.92,3.51,3.51,0,0,0,2.81.39Z" style="fill:#de5753"></path><path d="M287.61,172.24a4.69,4.69,0,0,1-.77.07.17.17,0,0,1-.17-.16.16.16,0,0,1,.16-.18,4.6,4.6,0,0,0,3.73-1.92.17.17,0,0,1,.24-.05.16.16,0,0,1,.05.23A4.73,4.73,0,0,1,287.61,172.24Z" style="fill:#263238"></path><path d="M289.24,162.81a.34.34,0,0,1-.35,0,2.8,2.8,0,0,0-2.5-.15.34.34,0,1,1-.33-.6,3.45,3.45,0,0,1,3.16.15.34.34,0,0,1,0,.59Z" style="fill:#263238"></path><path d="M278.81,161.9a.32.32,0,0,1-.17-.09.35.35,0,0,1,0-.49,3.42,3.42,0,0,1,3-1,.36.36,0,0,1,.27.41.34.34,0,0,1-.4.27,2.66,2.66,0,0,0-2.34.85A.35.35,0,0,1,278.81,161.9Z" style="fill:#263238"></path><path d="M287.14,164.71a.16.16,0,0,1-.11-.05.15.15,0,0,1,0-.21,1.65,1.65,0,0,1,1.8-.31.16.16,0,0,1,.07.2.16.16,0,0,1-.2.07,1.33,1.33,0,0,0-1.46.25A.16.16,0,0,1,287.14,164.71Z" style="fill:#263238"></path><path d="M297.2,159.16a5.4,5.4,0,0,1-4.47-3.24c-1.29-3.07-2.39-.57-2.39-.57s-.42-.92-3.2-1.48-4.61,6.91-7.61,5.7a3.49,3.49,0,0,1-2.12-4.22s1.31-.64,2.79-4.71c1.66-4.59,9.67-6.63,16.61-3.16S297.2,159.16,297.2,159.16Z" style="fill:#263238"></path><path d="M330.09,259,301,265.11l-7.63-11-4.54,10.27-12.68-7.19,6.75-9.85c-12.51-30.38-8.24-56.88-8.24-56.88a39.16,39.16,0,0,1,12.64-3.13c-7.26,11,3.56,34.52,3.56,34.52,6.51-18.14,14.3-35.67,14.3-35.67a37.17,37.17,0,0,1,12.32,1.28s2.84,41.39,6.59,51.91S330.09,259,330.09,259Z" style="fill:#263238"></path><path d="M300.9,201.14,307,208.8s-14.2,10.17-18.38,27l1.5-9.86-11.68-16.4,5.37-6.71-6.38-4.74s5.49-9.25,9.88-10.85c-7.26,11,3.56,34.52,3.56,34.52,6.51-18.14,14.3-35.67,14.3-35.67a25.06,25.06,0,0,1,7.91,11.29Z" style="fill:#fff;opacity:0.1"></path><path d="M350.37,259.19a13,13,0,0,1-1.92-.13c-2.11-.31-3.44-1.15-3.73-2.36-.59-2.39,3.07-5.18,8.49-6.5s10-.52,10.54,1.86h0c.29,1.22-.5,2.57-2.23,3.82a18.68,18.68,0,0,1-6.27,2.68A20.62,20.62,0,0,1,350.37,259.19Zm7.74-8.43a20,20,0,0,0-4.61.6c-4.93,1.2-8,3.63-7.62,5.06.17.68,1.19,1.23,2.74,1.45a17.43,17.43,0,0,0,6.35-.47,17.26,17.26,0,0,0,5.85-2.5c1.27-.91,1.93-1.86,1.76-2.55h0C362.36,251.41,360.64,250.76,358.11,250.76Z" style="fill:#263238"></path><path d="M376.93,249.75l7.7,31.62a1.92,1.92,0,0,1-1.42,2.34l-46.12,11.23a1.93,1.93,0,0,1-2.34-1.42l-7.7-31.62a1.94,1.94,0,0,1,1.42-2.34l46.12-11.23A1.93,1.93,0,0,1,376.93,249.75Z" style="fill:#263238"></path><path d="M376.93,249.75l7.7,31.62a1.92,1.92,0,0,1-1.42,2.34l-46.12,11.23a1.93,1.93,0,0,1-2.34-1.42l-7.7-31.62a1.94,1.94,0,0,1,1.42-2.34l46.12-11.23A1.93,1.93,0,0,1,376.93,249.75Z" style="fill:#fff;opacity:0.1"></path><path d="M331.58,260.8l7.7,31.62a2,2,0,0,1-1.42,2.34l-.77.18a1.93,1.93,0,0,1-2.34-1.42l-7.7-31.62a1.94,1.94,0,0,1,1.42-2.34l.77-.18A1.92,1.92,0,0,1,331.58,260.8Z" style="fill:#263238"></path><path d="M329.75,259.28a1.92,1.92,0,0,1,2.22,1.45l3.57,14.66a1.54,1.54,0,0,0,1.86,1.13l42.37-10.32a1.53,1.53,0,0,0,1.12-1.86l-3.58-14.7a1.92,1.92,0,0,0-2.32-1.41l-46.14,11.24Z" style="fill:#263238"></path><path d="M329.75,259.28a1.92,1.92,0,0,1,2.22,1.45l3.57,14.66a1.54,1.54,0,0,0,1.86,1.13l42.37-10.32a1.53,1.53,0,0,0,1.12-1.86l-3.58-14.7a1.92,1.92,0,0,0-2.32-1.41l-46.14,11.24Z" style="fill:#fff;opacity:0.2"></path><path d="M357.57,269.06h4.67a0,0,0,0,1,0,0v8.74a.57.57,0,0,1-.57.57h-3.53a.57.57,0,0,1-.57-.57v-8.74A0,0,0,0,1,357.57,269.06Z" transform="translate(-54.55 92.93) rotate(-13.69)" style="fill:#263238"></path><path d="M358.24,276.67a1.23,1.23,0,0,1-.62-.17,1.18,1.18,0,0,1-.53-.74l-.46-1.89a1.18,1.18,0,0,1,.13-.9,1.23,1.23,0,0,1,.74-.54l4-1a1.14,1.14,0,0,1,.9.14,1.18,1.18,0,0,1,.54.73l.46,1.9a1.21,1.21,0,0,1-.14.89,1.18,1.18,0,0,1-.73.54l-4,1A.9.9,0,0,1,358.24,276.67Zm3.51-4.64-.15,0-4,1a.58.58,0,0,0-.36.27.53.53,0,0,0-.07.44l.46,1.9a.6.6,0,0,0,.26.36.56.56,0,0,0,.45.07l4-1a.58.58,0,0,0,.36-.27.61.61,0,0,0,.07-.44l-.46-1.9a.61.61,0,0,0-.27-.36A.55.55,0,0,0,361.75,272Z" style="fill:#fff"></path><path d="M349.29,242.31,348,249.58l9-2.44s-.29-6.42-3.73-6.61Z" style="fill:#e4897b"></path><polygon points="350.87 254.92 358.22 252.55 357.04 247.14 348.02 249.58 350.87 254.92" style="fill:#e4897b"></polygon><polygon points="348.73 239.39 348.96 242.65 354.93 241.42 354.46 238.35 348.73 239.39" style="fill:#4697F3"></polygon><polygon points="348.73 239.39 348.96 242.65 354.93 241.42 354.46 238.35 348.73 239.39" style="fill:#fff;opacity:0.7000000000000001"></polygon><path d="M317.32,187.33a133.76,133.76,0,0,1,15.29,7.16A84,84,0,0,1,340,199c1.21.85,2.43,1.77,3.64,2.81a22.91,22.91,0,0,1,3.62,3.84,12.06,12.06,0,0,1,.87,1.4c.14.26.29.54.41.78l.23.57.45,1.15.36,1.07c.25.72.45,1.42.64,2.11s.39,1.39.56,2.07c.73,2.73,1.29,5.45,1.83,8.16,1,5.42,1.86,10.84,2.43,16.33l-6.43,1.2s-2.41-10.31-4.13-15.39c-.84-2.54-1.73-5.06-2.63-7.51-.22-.62-.45-1.22-.69-1.81s-.47-1.19-.71-1.73l-.36-.84-.36-.72-.18-.36a.59.59,0,0,0-.09-.11,2.78,2.78,0,0,0-.24-.3,14.57,14.57,0,0,0-2.15-1.9c-.89-.68-1.88-1.35-2.93-2-2.1-1.28-4.35-2.52-6.67-3.7-4.61-2.33-9.51-4.56-14.25-6.59Z" style="fill:#263238"></path></g><g id="freepik--speech-bubble--inject-1"><circle cx="376.24" cy="142.7" r="47.43" style="fill:#4697F3"></circle><circle cx="376.24" cy="142.7" r="47.43" style="fill:#fff;opacity:0.7000000000000001"></circle><circle cx="327.49" cy="160.75" r="5.01" style="fill:#4697F3"></circle><circle cx="327.49" cy="160.75" r="5.01" style="fill:#fff;opacity:0.7000000000000001"></circle><path d="M319.63,164.19a2.87,2.87,0,1,1-2.66-3.06A2.87,2.87,0,0,1,319.63,164.19Z" style="fill:#4697F3"></path><path d="M319.63,164.19a2.87,2.87,0,1,1-2.66-3.06A2.87,2.87,0,0,1,319.63,164.19Z" style="fill:#fff;opacity:0.7000000000000001"></path><path d="M311,163.42a1.44,1.44,0,1,1-1.34-1.53A1.45,1.45,0,0,1,311,163.42Z" style="fill:#4697F3"></path><path d="M311,163.42a1.44,1.44,0,1,1-1.34-1.53A1.45,1.45,0,0,1,311,163.42Z" style="fill:#fff;opacity:0.7000000000000001"></path><ellipse cx="375.15" cy="143.7" rx="18.46" ry="22.95" transform="translate(-26.48 134.73) rotate(-19.68)" style="fill:#4697F3"></ellipse><ellipse cx="376.51" cy="143.21" rx="14.9" ry="18.52" transform="translate(-26.24 135.16) rotate(-19.68)" style="fill:#fff"></ellipse><path d="M388.93,138.77c2.76,7.72,0,15.77-6.24,18s-13.48-2.24-16.24-9.95,0-15.76,6.25-18S386.17,131.06,388.93,138.77Z" style="fill:#4697F3"></path><ellipse cx="378.53" cy="142.49" rx="8.8" ry="11.39" transform="translate(-25.88 135.8) rotate(-19.68)" style="fill:#fff"></ellipse><path d="M385.26,140.45c1.51,4.22.2,8.55-2.92,9.67s-6.87-1.41-8.38-5.63-.21-8.55,2.91-9.67S383.75,136.23,385.26,140.45Z" style="fill:#4697F3"></path><path d="M384.16,140.84c1.1,3,.27,6.14-1.85,6.89s-4.71-1.1-5.8-4.15-.26-6.14,1.85-6.9S383.07,137.79,384.16,140.84Z" style="fill:#fff"></path><polygon points="409.35 127.06 403.67 129.09 402.58 134.25 406.7 137.56 412.38 135.52 408.17 132.26 409.35 127.06" style="fill:#4697F3"></polygon><path d="M381.22,142.89a1,1,0,0,1-.34-1.94L408.7,131a1,1,0,1,1,.67,1.89l-27.81,9.94A1,1,0,0,1,381.22,142.89Z" style="fill:#263238"></path></g></svg>
