<?xml version="1.0" encoding="utf-8"?>
<svg width="500" zoomAndPan="magnify" viewBox="108.715 78.345 143.046 194.542" height="500" preserveAspectRatio="xMidYMid meet" version="1.0" xmlns="http://www.w3.org/2000/svg">
  <defs>
    <g/>
    <clipPath id="25e855a831">
      <path d="M 150.722656 82.054688 L 207.722656 82.054688 L 207.722656 179.554688 L 150.722656 179.554688 Z M 150.722656 82.054688 " clip-rule="nonzero"/>
    </clipPath>
  </defs>
  <g fill="#ffffff" fill-opacity="1">
    <g transform="translate(108.774416, 247.808613)">
      <g>
        <path d="M 23.710938 -32.472656 C 27.640625 -32.472656 31.566406 -30.433594 33.53125 -26.28125 L 37.683594 -17.371094 C 42.667969 -6.722656 53.390625 0 65.097656 0 L 32.398438 -69.25 L 0.980469 0 L 2.113281 0 L 13.894531 -26.128906 C 15.785156 -30.359375 19.785156 -32.472656 23.710938 -32.472656 Z M 23.710938 -32.472656 "/>
      </g>
    </g>
  </g>
  <g fill="#ffffff" fill-opacity="1">
    <g transform="translate(174.927341, 247.808613)">
      <g>
        <path d="M 72.121094 -34.132812 C 72.121094 -55.203125 54.148438 -68.269531 30.054688 -68.269531 L 6.117188 -68.269531 L 6.117188 -17.519531 C 6.117188 -7.855469 13.972656 0 23.710938 0 L 30.054688 0 C 54.148438 0 72.121094 -13.066406 72.121094 -34.132812 Z M 23.710938 -67.285156 L 30.054688 -67.285156 C 45.539062 -67.285156 52.5625 -55.429688 52.5625 -34.132812 C 52.5625 -12.839844 45.539062 -0.980469 30.054688 -0.980469 L 23.710938 -0.980469 Z M 23.710938 -67.285156 "/>
      </g>
    </g>
  </g>
  <g clip-path="url(#25e855a831)">
    <path fill="#f94616" d="M 171.976562 148.742188 C 173.164062 151.859375 172.097656 154.632812 170.742188 157.367188 C 169.519531 159.832031 168.253906 162.273438 167.296875 164.867188 C 166.363281 167.398438 165.875 170.003906 166.375 172.660156 C 166.832031 175.09375 168.042969 177.140625 170.285156 178.429688 C 170.34375 178.464844 170.410156 178.488281 170.5 178.53125 C 170.253906 178.671875 170.125 178.566406 170 178.515625 C 168.144531 177.792969 166.328125 176.996094 164.714844 175.804688 C 164.46875 175.625 164.234375 175.421875 163.972656 175.269531 C 161.773438 173.992188 159.921875 172.308594 158.316406 170.363281 C 156.417969 168.054688 154.800781 165.570312 154.082031 162.617188 C 153.148438 158.75 153.066406 154.859375 153.808594 150.945312 C 154.539062 147.105469 156.292969 143.710938 158.402344 140.492188 C 160.023438 138.023438 161.765625 135.628906 163.046875 132.957031 C 164.402344 130.140625 164.839844 127.207031 164.152344 124.125 C 163.964844 123.28125 163.75 122.46875 163.332031 121.707031 C 163.082031 121.246094 163.195312 121.082031 163.707031 121.078125 C 164.378906 121.074219 164.941406 121.378906 165.472656 121.75 C 168.1875 123.632812 169.40625 126.390625 170.027344 129.507812 C 170.421875 131.480469 170.421875 133.453125 170.210938 135.445312 C 170.109375 136.40625 170.011719 137.371094 170.109375 138.339844 C 170.160156 138.832031 170.304688 139.289062 170.546875 139.714844 C 170.945312 140.40625 171.601562 140.5625 172.21875 140.066406 C 172.902344 139.519531 173.242188 138.773438 173.386719 137.902344 C 174.027344 134.101562 173.136719 130.449219 172.316406 126.800781 C 171.683594 123.972656 171.316406 121.121094 171.308594 118.226562 C 171.300781 114.308594 172.757812 110.855469 174.890625 107.652344 C 175.515625 106.710938 176.191406 105.804688 176.882812 104.914062 C 178.164062 103.269531 179.304688 101.539062 180.382812 99.757812 C 181.882812 97.28125 182.503906 94.640625 182.136719 91.738281 C 181.914062 89.949219 181.492188 88.246094 180.578125 86.699219 C 179.605469 85.0625 178.214844 83.894531 176.363281 83.3125 C 175.992188 83.195312 175.40625 83.136719 175.515625 82.601562 C 175.621094 82.082031 176.210938 82.25 176.5625 82.289062 C 178.820312 82.539062 180.773438 83.492188 182.472656 84.980469 C 183.351562 85.753906 184.117188 86.625 184.804688 87.574219 C 186.289062 89.625 187.550781 91.789062 188.226562 94.25 C 188.8125 96.386719 188.933594 98.566406 188.789062 100.777344 C 188.511719 104.996094 187.289062 108.996094 186.152344 113.027344 C 185.765625 114.398438 185.347656 115.78125 185.292969 117.222656 C 185.246094 118.324219 185.359375 119.410156 185.898438 120.402344 C 186.5 121.511719 187.492188 121.972656 188.699219 121.972656 C 189.804688 121.972656 190.394531 121.214844 190.816406 120.324219 C 191.578125 118.71875 192.289062 117.105469 192.183594 115.253906 C 192.121094 114.15625 191.933594 113.09375 191.625 112.042969 C 191.585938 111.914062 191.445312 111.773438 191.589844 111.652344 C 191.707031 111.554688 191.859375 111.632812 191.992188 111.6875 C 192.984375 112.097656 193.632812 112.878906 194.171875 113.761719 C 196.253906 117.175781 196.808594 120.953125 196.734375 124.859375 C 196.621094 130.597656 195.230469 136.085938 193.445312 141.496094 C 192.660156 143.875 191.828125 146.238281 191.289062 148.691406 C 191.042969 149.816406 190.921875 150.945312 191.304688 152.082031 C 191.554688 152.828125 192.082031 153.269531 192.75 153.582031 C 193.09375 153.746094 193.449219 153.703125 193.785156 153.539062 C 194.371094 153.253906 194.796875 152.8125 195.109375 152.246094 C 196.039062 150.542969 196.511719 148.675781 196.886719 146.804688 C 197.414062 144.15625 197.761719 141.472656 197.703125 138.757812 C 197.675781 137.414062 197.652344 136.070312 197.632812 134.726562 C 197.632812 134.507812 197.527344 134.226562 197.816406 134.109375 C 198.113281 133.988281 198.328125 134.179688 198.515625 134.386719 C 199.253906 135.214844 199.769531 136.179688 200.121094 137.21875 C 200.953125 139.660156 201.355469 142.199219 201.40625 144.765625 C 201.460938 147.480469 200.988281 150.144531 200.203125 152.746094 C 199.796875 154.09375 199.578125 155.464844 199.601562 156.871094 C 199.613281 157.457031 199.746094 158.007812 200.179688 158.445312 C 200.859375 159.132812 201.761719 159.128906 202.390625 158.398438 C 203.097656 157.582031 203.320312 156.554688 203.570312 155.554688 C 204.042969 153.65625 203.757812 151.828125 203.007812 150.050781 C 202.953125 149.917969 202.902344 149.78125 202.871094 149.644531 C 202.832031 149.496094 202.875 149.359375 202.992188 149.257812 C 203.132812 149.132812 203.257812 149.226562 203.382812 149.296875 C 203.847656 149.5625 204.1875 149.972656 204.472656 150.394531 C 205.09375 151.316406 205.789062 152.1875 206.277344 153.191406 C 207.480469 155.65625 207.722656 158.253906 207.300781 160.9375 C 206.492188 166.082031 203.917969 170.125 199.78125 173.261719 C 196.542969 175.71875 193 177.574219 189.21875 179.015625 C 188.808594 179.175781 188.367188 179.265625 187.933594 179.367188 C 187.800781 179.398438 187.601562 179.535156 187.535156 179.285156 C 187.476562 179.085938 187.695312 179.105469 187.792969 179.050781 C 189.773438 177.957031 191.660156 176.71875 193.375 175.25 C 195.726562 173.230469 197.453125 170.785156 198.039062 167.671875 C 198.304688 166.265625 198.105469 164.871094 197.636719 163.546875 C 197.078125 161.964844 196.449219 160.402344 195.425781 159.042969 C 195.402344 159.015625 195.390625 158.976562 195.363281 158.957031 C 195.144531 158.769531 194.980469 158.347656 194.667969 158.515625 C 194.46875 158.621094 194.691406 158.988281 194.753906 159.234375 C 194.945312 160.007812 195.195312 160.773438 195.320312 161.558594 C 195.539062 162.933594 194.820312 163.933594 193.738281 164.601562 C 192.902344 165.117188 191.96875 164.949219 191.117188 164.417969 C 189.953125 163.695312 189.058594 162.710938 188.273438 161.605469 C 186.097656 158.523438 184.445312 155.175781 183.484375 151.53125 C 182.316406 147.121094 182.308594 142.667969 183.386719 138.21875 C 183.691406 136.949219 184.0625 135.699219 184.480469 134.464844 C 184.519531 134.347656 184.5625 134.226562 184.597656 134.109375 C 184.660156 133.894531 184.605469 133.707031 184.417969 133.59375 C 184.246094 133.492188 184.0625 133.542969 183.925781 133.679688 C 183.722656 133.882812 183.511719 134.082031 183.34375 134.3125 C 181.226562 137.234375 179.609375 140.390625 178.910156 143.960938 C 178.628906 145.394531 178.6875 146.84375 178.875 148.289062 C 179.003906 149.277344 179.128906 150.273438 179.328125 151.25 C 179.539062 152.273438 179.828125 153.285156 180.097656 154.300781 C 180.445312 155.613281 180.417969 156.914062 180.023438 158.210938 C 179.753906 159.089844 179.332031 159.839844 178.320312 159.996094 C 177.25 160.164062 176.460938 159.632812 175.914062 158.804688 C 175.125 157.605469 174.800781 156.269531 175.050781 154.828125 C 175.457031 152.511719 174.117188 149.847656 171.976562 148.742188 Z M 174.628906 112.074219 C 174.554688 112.101562 174.507812 112.101562 174.492188 112.125 C 174.441406 112.21875 174.378906 112.308594 174.355469 112.410156 C 173.8125 114.578125 173.355469 116.765625 173.25 119.007812 C 173.152344 121.050781 173.546875 123.035156 174.042969 125.003906 C 174.433594 126.542969 175.019531 128.039062 175.074219 129.65625 C 175.078125 129.765625 175.09375 129.878906 175.234375 129.886719 C 175.445312 129.894531 175.394531 129.726562 175.390625 129.617188 C 175.386719 128.886719 175.351562 128.15625 175.308594 127.425781 C 175.214844 125.769531 174.945312 124.140625 174.578125 122.535156 C 173.898438 119.589844 173.855469 116.652344 174.394531 113.6875 C 174.488281 113.167969 174.691406 112.640625 174.628906 112.074219 Z M 157.34375 147.242188 C 157.050781 147.300781 157.019531 147.519531 156.9375 147.683594 C 155.757812 150.054688 155.222656 152.550781 155.371094 155.203125 C 155.445312 156.589844 155.792969 157.863281 156.503906 159.042969 C 156.578125 159.171875 156.617188 159.417969 156.8125 159.332031 C 156.964844 159.269531 156.882812 159.0625 156.835938 158.90625 C 156.507812 157.738281 156.375 156.542969 156.34375 155.324219 C 156.324219 154.480469 156.398438 153.644531 156.476562 152.8125 C 156.582031 151.683594 156.621094 150.539062 156.867188 149.425781 C 157.023438 148.707031 157.179688 147.988281 157.34375 147.242188 Z M 170.605469 153.535156 C 170.308594 154.042969 170.109375 154.582031 169.777344 155.0625 C 168.777344 156.507812 167.800781 157.964844 167.0625 159.570312 C 166.175781 161.496094 165.425781 163.453125 165.308594 165.597656 C 165.300781 165.746094 165.210938 165.984375 165.421875 166.007812 C 165.652344 166.039062 165.59375 165.796875 165.605469 165.648438 C 165.660156 164.882812 165.851562 164.148438 166.113281 163.433594 C 167.058594 160.886719 168.414062 158.550781 169.78125 156.222656 C 170.269531 155.394531 170.554688 154.5 170.605469 153.535156 Z M 184.710938 138.3125 C 184.390625 138.804688 184.359375 139.238281 184.296875 139.667969 C 184.03125 141.570312 183.644531 143.445312 183.875 145.394531 C 184.113281 147.40625 184.359375 149.398438 185.355469 151.207031 C 185.414062 151.316406 185.390625 151.558594 185.601562 151.480469 C 185.808594 151.398438 185.628906 151.214844 185.59375 151.117188 C 185.09375 149.726562 184.773438 148.300781 184.632812 146.824219 C 184.410156 144.558594 184.347656 142.300781 184.625 140.035156 C 184.6875 139.515625 184.828125 138.984375 184.710938 138.3125 Z M 187.132812 97.40625 C 187.132812 97.757812 187.085938 98.058594 187.140625 98.34375 C 187.351562 99.523438 187.257812 100.691406 186.953125 101.832031 C 186.4375 103.761719 185.867188 105.671875 185.347656 107.597656 C 185.300781 107.765625 185.046875 108.046875 185.300781 108.132812 C 185.535156 108.210938 185.546875 107.847656 185.632812 107.671875 C 185.910156 107.097656 186.148438 106.503906 186.433594 105.929688 C 187.664062 103.425781 187.816406 100.773438 187.539062 98.0625 C 187.515625 97.832031 187.441406 97.582031 187.132812 97.40625 Z M 205.277344 162.660156 C 205.082031 163.03125 204.898438 163.320312 204.773438 163.632812 C 204.242188 164.96875 203.679688 166.28125 202.867188 167.476562 C 202.410156 168.152344 202.027344 168.878906 201.453125 169.476562 C 201.390625 169.542969 201.265625 169.632812 201.371094 169.746094 C 201.460938 169.847656 201.570312 169.769531 201.65625 169.707031 C 201.726562 169.65625 201.792969 169.597656 201.859375 169.535156 C 203.375 168.054688 204.460938 166.300781 205.140625 164.300781 C 205.308594 163.808594 205.535156 163.292969 205.277344 162.660156 Z M 184.605469 132.347656 C 185.125 132.007812 185.261719 131.570312 185.515625 131.222656 C 186.359375 130.0625 187.171875 128.878906 187.679688 127.519531 C 187.753906 127.328125 187.878906 127.144531 187.695312 126.871094 C 186.53125 128.601562 185.320312 130.246094 184.605469 132.347656 Z M 175.289062 133.71875 C 175.289062 133.988281 175.292969 134.253906 175.289062 134.523438 C 175.285156 134.664062 175.335938 134.800781 175.464844 134.816406 C 175.648438 134.847656 175.695312 134.660156 175.703125 134.53125 C 175.722656 134.15625 175.753906 133.773438 175.691406 133.410156 C 175.65625 133.1875 175.695312 132.746094 175.460938 132.773438 C 175.132812 132.808594 175.34375 133.214844 175.292969 133.453125 C 175.273438 133.539062 175.289062 133.628906 175.289062 133.71875 Z M 151.300781 167.230469 C 151.839844 169.335938 153.0625 170.894531 154.953125 171.953125 C 155.605469 172.320312 156.203125 172.773438 156.820312 173.199219 C 158.40625 174.289062 159.929688 175.46875 161.605469 176.425781 C 161.730469 176.496094 161.886719 176.679688 162.015625 176.472656 C 162.125 176.296875 161.914062 176.242188 161.8125 176.164062 C 160.347656 175.042969 158.9375 173.859375 157.632812 172.5625 C 155.941406 170.882812 154.371094 169.09375 153.246094 166.96875 C 152.066406 164.742188 151.597656 162.328125 151.402344 159.839844 C 151.351562 159.203125 151.257812 158.566406 151.1875 157.929688 C 151.171875 157.792969 151.125 157.667969 150.976562 157.667969 C 150.828125 157.667969 150.769531 157.792969 150.765625 157.925781 C 150.761719 158.035156 150.761719 158.144531 150.777344 158.25 C 150.902344 159.242188 150.980469 160.238281 150.976562 161.238281 C 150.96875 162.257812 150.972656 163.273438 150.972656 164.292969 C 150.722656 165.3125 151.050781 166.261719 151.300781 167.230469 Z M 161.40625 124.175781 C 161.402344 124.011719 161.363281 123.8125 161.171875 123.816406 C 160.957031 123.820312 160.980469 124.03125 160.980469 124.191406 C 160.988281 126.117188 160.410156 127.9375 159.925781 129.769531 C 159.523438 131.28125 158.617188 132.566406 157.960938 133.960938 C 157.417969 135.117188 156.984375 136.34375 156.128906 137.320312 C 155.257812 138.316406 154.550781 139.445312 153.582031 140.359375 C 153.460938 140.472656 153.269531 140.589844 153.398438 140.804688 C 153.542969 141.046875 153.75 140.914062 153.921875 140.855469 C 154.59375 140.621094 155.171875 140.238281 155.617188 139.6875 C 156.167969 139.003906 156.773438 138.371094 157.378906 137.738281 C 157.859375 137.234375 158.296875 136.691406 158.65625 136.089844 C 160.59375 132.832031 161.253906 129.242188 161.40625 125.519531 C 161.40625 125.074219 161.410156 124.625 161.40625 124.175781 Z M 172.945312 178.308594 C 171.84375 177.683594 171.285156 176.617188 170.707031 175.566406 C 169.855469 174.03125 169.339844 172.394531 169.28125 170.636719 C 169.203125 168.140625 169.683594 165.710938 170.277344 163.300781 C 170.332031 163.082031 170.429688 162.832031 170.179688 162.742188 C 169.941406 162.652344 169.875 162.929688 169.785156 163.09375 C 169.304688 163.972656 169.070312 164.945312 168.75 165.882812 C 168.066406 167.882812 167.5625 169.898438 167.964844 172.050781 C 168.410156 174.445312 169.464844 176.449219 171.453125 177.910156 C 171.910156 178.25 172.402344 178.496094 173.03125 178.484375 C 172.988281 178.394531 172.980469 178.328125 172.945312 178.308594 Z M 191.695312 95.734375 C 191.425781 94.25 190.773438 92.953125 189.835938 91.785156 C 189.730469 91.648438 189.695312 91.414062 189.453125 91.539062 C 189.21875 91.660156 189.34375 91.847656 189.417969 92 C 189.753906 92.667969 190.058594 93.351562 190.238281 94.074219 C 190.679688 95.832031 190.820312 97.621094 190.789062 99.429688 C 190.769531 100.664062 190.828125 101.898438 190.5625 103.113281 C 190.46875 103.546875 190.347656 103.972656 190.234375 104.402344 C 190.199219 104.539062 190.109375 104.703125 190.28125 104.78125 C 190.484375 104.875 190.542969 104.671875 190.625 104.542969 C 190.652344 104.5 190.671875 104.445312 190.691406 104.398438 C 191.457031 102.558594 192 100.671875 191.980469 98.660156 C 192 97.671875 191.871094 96.703125 191.695312 95.734375 Z M 190.128906 164.894531 C 189.828125 164.644531 189.527344 164.386719 189.214844 164.152344 C 187.699219 163.019531 186.671875 161.507812 185.878906 159.820312 C 185.519531 159.050781 185.230469 158.25 184.726562 157.554688 C 184.648438 157.441406 184.578125 157.261719 184.40625 157.34375 C 184.242188 157.421875 184.292969 157.605469 184.355469 157.722656 C 184.78125 158.484375 184.824219 159.351562 185.085938 160.160156 C 185.554688 161.605469 186.179688 162.964844 187.519531 163.824219 C 188.328125 164.339844 189.257812 164.65625 190 165.292969 C 190.070312 165.351562 190.152344 165.398438 190.234375 165.320312 C 190.28125 165.273438 190.316406 165.214844 190.355469 165.15625 C 190.269531 165.054688 190.210938 164.960938 190.128906 164.894531 Z M 203.367188 145.910156 C 203.371094 146.371094 203.332031 146.835938 203.476562 147.289062 C 203.539062 147.488281 203.664062 147.664062 203.867188 147.660156 C 204.058594 147.660156 204.070312 147.429688 204.105469 147.289062 C 204.230469 146.785156 204.316406 146.277344 204.25 145.753906 C 204.078125 144.410156 204.046875 143.0625 204.148438 141.707031 C 204.160156 141.550781 204.214844 141.351562 204 141.316406 C 203.753906 141.277344 203.746094 141.511719 203.691406 141.671875 C 203.335938 142.738281 203.335938 143.839844 203.367188 144.945312 C 203.367188 145.265625 203.363281 145.585938 203.367188 145.910156 Z M 172.011719 157.578125 C 171.75 157.539062 171.78125 157.871094 171.714844 158.058594 C 171.53125 158.578125 171.347656 159.09375 171.152344 159.609375 C 170.96875 160.105469 170.769531 160.597656 170.578125 161.09375 C 170.535156 161.214844 170.519531 161.351562 170.632812 161.441406 C 170.753906 161.539062 170.828125 161.425781 170.890625 161.34375 C 171.613281 160.394531 172.121094 159.355469 172.167969 158.085938 C 172.105469 157.945312 172.292969 157.621094 172.011719 157.578125 Z M 172.011719 157.578125 " fill-opacity="1" fill-rule="nonzero"/>
  </g>
  <g fill="#d9d9d9" fill-opacity="1">
    <g transform="translate(113.177188, 267.063929)">
      <g>
        <path d="M 5.558594 0 L 3.652344 -3.925781 C 4.492188 -4.171875 5.050781 -4.839844 5.050781 -5.792969 L 5.050781 -6.90625 C 5.050781 -8.144531 4.257812 -8.875 2.984375 -8.875 L 1.078125 -8.875 L 1.078125 0 L 1.660156 0 L 1.660156 -3.925781 C 2.003906 -3.863281 2.464844 -3.8125 2.835938 -3.8125 C 2.910156 -3.8125 2.984375 -3.8125 3.046875 -3.824219 L 4.902344 0 Z M 2.808594 -4.332031 C 2.464844 -4.332031 2.019531 -4.382812 1.660156 -4.445312 L 1.660156 -8.355469 L 2.984375 -8.355469 C 3.925781 -8.355469 4.46875 -7.875 4.46875 -6.882812 L 4.46875 -5.816406 C 4.46875 -4.828125 3.777344 -4.332031 2.808594 -4.332031 Z M 2.808594 -4.332031 "/>
      </g>
    </g>
  </g>
  <g fill="#d9d9d9" fill-opacity="1">
    <g transform="translate(119.908882, 267.063929)">
      <g>
        <path d="M 5.011719 0 L 5.621094 0 L 3.269531 -8.875 L 2.734375 -8.875 L 0.394531 0 L 0.992188 0 L 1.546875 -2.226562 L 4.445312 -2.226562 Z M 1.683594 -2.75 L 2.511719 -6.027344 C 2.699219 -6.722656 2.835938 -7.527344 2.996094 -8.292969 C 3.15625 -7.527344 3.304688 -6.722656 3.492188 -6.015625 L 4.320312 -2.75 Z M 1.683594 -2.75 "/>
      </g>
    </g>
  </g>
  <g fill="#d9d9d9" fill-opacity="1">
    <g transform="translate(126.702435, 267.063929)">
      <g>
        <path d="M 3.144531 -8.875 L 1.078125 -8.875 L 1.078125 0 L 3.144531 0 C 4.40625 0 5.210938 -0.742188 5.210938 -1.96875 L 5.210938 -6.90625 C 5.210938 -8.15625 4.40625 -8.875 3.144531 -8.875 Z M 4.628906 -1.992188 C 4.628906 -1.003906 4.085938 -0.519531 3.144531 -0.519531 L 1.660156 -0.519531 L 1.660156 -8.355469 L 3.144531 -8.355469 C 4.085938 -8.355469 4.628906 -7.875 4.628906 -6.882812 Z M 4.628906 -1.992188 "/>
      </g>
    </g>
  </g>
  <g fill="#d9d9d9" fill-opacity="1">
    <g transform="translate(133.582611, 267.063929)">
      <g>
        <path d="M 1.078125 0 L 1.660156 0 L 1.660156 -8.875 L 1.078125 -8.875 Z M 1.078125 0 "/>
      </g>
    </g>
  </g>
  <g fill="#d9d9d9" fill-opacity="1">
    <g transform="translate(137.109531, 267.063929)">
      <g>
        <path d="M 2.984375 0.125 C 4.257812 0.125 5.164062 -0.617188 5.164062 -1.84375 L 5.164062 -7.019531 C 5.164062 -8.257812 4.257812 -8.988281 2.984375 -8.988281 C 1.707031 -8.988281 0.890625 -8.257812 0.890625 -7.019531 L 0.890625 -1.84375 C 0.890625 -0.617188 1.707031 0.125 2.984375 0.125 Z M 2.984375 -0.394531 C 2.03125 -0.394531 1.472656 -0.878906 1.472656 -1.871094 L 1.472656 -6.996094 C 1.472656 -7.984375 2.03125 -8.46875 2.984375 -8.46875 C 3.949219 -8.46875 4.566406 -7.972656 4.566406 -6.996094 L 4.566406 -1.871094 C 4.566406 -0.890625 3.949219 -0.394531 2.984375 -0.394531 Z M 2.984375 -0.394531 "/>
      </g>
    </g>
  </g>
  <g fill="#d9d9d9" fill-opacity="1">
    <g transform="translate(143.940214, 267.063929)">
      <g/>
    </g>
  </g>
  <g fill="#d9d9d9" fill-opacity="1">
    <g transform="translate(147.677485, 267.063929)">
      <g>
        <path d="M 4.109375 -4.59375 C 4.789062 -4.804688 5.148438 -5.445312 5.148438 -6.238281 L 5.148438 -6.90625 C 5.148438 -8.171875 4.457031 -8.875 3.082031 -8.875 L 1.078125 -8.875 L 1.078125 0 L 3.328125 0 C 4.605469 0 5.410156 -0.730469 5.410156 -1.96875 L 5.410156 -2.824219 C 5.410156 -3.738281 4.925781 -4.417969 4.109375 -4.59375 Z M 3.082031 -8.355469 C 4.132812 -8.355469 4.566406 -7.898438 4.566406 -6.882812 L 4.566406 -6.265625 C 4.566406 -5.273438 4.035156 -4.789062 3.082031 -4.789062 L 1.660156 -4.789062 L 1.660156 -8.355469 Z M 4.816406 -1.992188 C 4.816406 -0.992188 4.285156 -0.507812 3.328125 -0.507812 L 1.660156 -0.507812 L 1.660156 -4.269531 L 3.328125 -4.269531 C 4.285156 -4.269531 4.816406 -3.789062 4.816406 -2.796875 Z M 4.816406 -1.992188 "/>
      </g>
    </g>
  </g>
  <g fill="#d9d9d9" fill-opacity="1">
    <g transform="translate(154.570024, 267.063929)">
      <g>
        <path d="M 1.660156 -0.519531 L 1.660156 -4.296875 L 4.492188 -4.296875 L 4.492188 -4.816406 L 1.660156 -4.816406 L 1.660156 -8.355469 L 4.742188 -8.355469 L 4.742188 -8.875 L 1.078125 -8.875 L 1.078125 0 L 4.753906 0 L 4.753906 -0.519531 Z M 1.660156 -0.519531 "/>
      </g>
    </g>
  </g>
  <g fill="#d9d9d9" fill-opacity="1">
    <g transform="translate(160.621162, 267.063929)">
      <g>
        <path d="M 1.078125 0 L 1.632812 0 L 1.632812 -6.597656 L 1.585938 -7.921875 C 1.757812 -7.539062 1.957031 -6.808594 2.242188 -6.164062 L 4.953125 0 L 5.535156 0 L 5.535156 -8.875 L 4.976562 -8.875 L 4.976562 -2.351562 L 5.011719 -1.066406 C 4.914062 -1.273438 4.730469 -1.945312 4.542969 -2.390625 L 1.722656 -8.875 L 1.078125 -8.875 Z M 1.078125 0 "/>
      </g>
    </g>
  </g>
  <g fill="#d9d9d9" fill-opacity="1">
    <g transform="translate(168.021029, 267.063929)">
      <g>
        <path d="M 3.144531 -8.875 L 1.078125 -8.875 L 1.078125 0 L 3.144531 0 C 4.40625 0 5.210938 -0.742188 5.210938 -1.96875 L 5.210938 -6.90625 C 5.210938 -8.15625 4.40625 -8.875 3.144531 -8.875 Z M 4.628906 -1.992188 C 4.628906 -1.003906 4.085938 -0.519531 3.144531 -0.519531 L 1.660156 -0.519531 L 1.660156 -8.355469 L 3.144531 -8.355469 C 4.085938 -8.355469 4.628906 -7.875 4.628906 -6.882812 Z M 4.628906 -1.992188 "/>
      </g>
    </g>
  </g>
  <g fill="#d9d9d9" fill-opacity="1">
    <g transform="translate(174.901205, 267.063929)">
      <g>
        <path d="M 1.078125 0 L 1.660156 0 L 1.660156 -8.875 L 1.078125 -8.875 Z M 1.078125 0 "/>
      </g>
    </g>
  </g>
  <g fill="#d9d9d9" fill-opacity="1">
    <g transform="translate(178.428127, 267.063929)">
      <g>
        <path d="M 4.902344 -1.25 C 4.628906 -0.804688 4 -0.394531 3.207031 -0.394531 C 2.191406 -0.394531 1.472656 -0.878906 1.472656 -1.871094 L 1.472656 -6.996094 C 1.472656 -7.972656 2.117188 -8.46875 3.070312 -8.46875 C 3.601562 -8.46875 4.195312 -8.292969 4.53125 -8.144531 L 4.53125 -6.636719 L 5.074219 -6.636719 L 5.074219 -8.429688 C 4.753906 -8.691406 3.898438 -8.988281 3.082031 -8.988281 C 1.734375 -8.988281 0.890625 -8.257812 0.890625 -7.019531 L 0.890625 -1.84375 C 0.890625 -0.617188 1.722656 0.125 3.207031 0.125 C 4.074219 0.113281 4.828125 -0.296875 5.1875 -0.839844 Z M 4.902344 -1.25 "/>
      </g>
    </g>
  </g>
  <g fill="#d9d9d9" fill-opacity="1">
    <g transform="translate(184.986589, 267.063929)">
      <g>
        <path d="M 1.078125 0 L 1.660156 0 L 1.660156 -8.875 L 1.078125 -8.875 Z M 1.078125 0 "/>
      </g>
    </g>
  </g>
  <g fill="#d9d9d9" fill-opacity="1">
    <g transform="translate(188.513511, 267.063929)">
      <g>
        <path d="M 2.574219 -9.59375 L 3.082031 -9.59375 L 4.074219 -11.316406 L 3.464844 -11.316406 Z M 2.984375 0.125 C 4.257812 0.125 5.164062 -0.617188 5.164062 -1.84375 L 5.164062 -7.019531 C 5.164062 -8.257812 4.257812 -8.988281 2.984375 -8.988281 C 1.707031 -8.988281 0.890625 -8.257812 0.890625 -7.019531 L 0.890625 -1.84375 C 0.890625 -0.617188 1.707031 0.125 2.984375 0.125 Z M 2.984375 -0.394531 C 2.03125 -0.394531 1.472656 -0.878906 1.472656 -1.871094 L 1.472656 -6.996094 C 1.472656 -7.984375 2.03125 -8.46875 2.984375 -8.46875 C 3.949219 -8.46875 4.566406 -7.972656 4.566406 -6.996094 L 4.566406 -1.871094 C 4.566406 -0.890625 3.949219 -0.394531 2.984375 -0.394531 Z M 2.984375 -0.394531 "/>
      </g>
    </g>
  </g>
  <g fill="#d9d9d9" fill-opacity="1">
    <g transform="translate(195.344194, 267.063929)">
      <g>
        <path d="M 1.078125 0 L 1.632812 0 L 1.632812 -6.597656 L 1.585938 -7.921875 C 1.757812 -7.539062 1.957031 -6.808594 2.242188 -6.164062 L 4.953125 0 L 5.535156 0 L 5.535156 -8.875 L 4.976562 -8.875 L 4.976562 -2.351562 L 5.011719 -1.066406 C 4.914062 -1.273438 4.730469 -1.945312 4.542969 -2.390625 L 1.722656 -8.875 L 1.078125 -8.875 Z M 1.078125 0 "/>
      </g>
    </g>
  </g>
  <g fill="#d9d9d9" fill-opacity="1">
    <g transform="translate(202.744061, 267.063929)">
      <g/>
    </g>
  </g>
  <g fill="#d9d9d9" fill-opacity="1">
    <g transform="translate(206.481335, 267.063929)">
      <g>
        <path d="M 2.6875 0.125 C 3.949219 0.125 4.714844 -0.558594 4.714844 -1.757812 L 4.714844 -7.128906 C 4.714844 -8.367188 3.984375 -8.988281 2.734375 -8.988281 C 1.4375 -8.988281 0.78125 -8.378906 0.78125 -7.128906 L 0.78125 -5.296875 C 0.78125 -4.058594 1.472656 -3.40625 2.675781 -3.40625 C 3.441406 -3.40625 3.960938 -3.789062 4.121094 -4.257812 L 4.121094 -1.796875 C 4.121094 -0.828125 3.613281 -0.394531 2.6875 -0.394531 C 1.660156 -0.394531 1.410156 -0.953125 1.261719 -1.460938 L 0.839844 -1.140625 C 1.039062 -0.53125 1.386719 0.125 2.6875 0.125 Z M 2.773438 -3.925781 C 1.820312 -3.925781 1.363281 -4.382812 1.363281 -5.324219 L 1.363281 -7.105469 C 1.363281 -8.058594 1.769531 -8.46875 2.734375 -8.46875 C 3.664062 -8.46875 4.121094 -8.046875 4.121094 -7.105469 L 4.121094 -5.148438 C 4.023438 -4.320312 3.578125 -3.925781 2.773438 -3.925781 Z M 2.773438 -3.925781 "/>
      </g>
    </g>
  </g>
  <g fill="#d9d9d9" fill-opacity="1">
    <g transform="translate(212.755199, 267.063929)">
      <g>
        <path d="M 2.699219 0.125 C 3.972656 0.125 4.703125 -0.53125 4.703125 -1.757812 L 4.703125 -7.09375 C 4.703125 -8.34375 3.972656 -8.988281 2.699219 -8.988281 C 1.4375 -8.988281 0.765625 -8.355469 0.765625 -7.09375 L 0.765625 -1.757812 C 0.765625 -0.519531 1.4375 0.125 2.699219 0.125 Z M 2.699219 -0.394531 C 1.769531 -0.394531 1.363281 -0.828125 1.363281 -1.78125 L 1.363281 -7.070312 C 1.363281 -8.035156 1.769531 -8.46875 2.699219 -8.46875 C 3.640625 -8.46875 4.109375 -8.023438 4.109375 -7.070312 L 4.109375 -1.78125 C 4.109375 -0.839844 3.640625 -0.394531 2.699219 -0.394531 Z M 2.699219 -0.394531 "/>
      </g>
    </g>
  </g>
  <g fill="#d9d9d9" fill-opacity="1">
    <g transform="translate(219.016688, 267.063929)">
      <g>
        <path d="M 0.742188 0 L 1.300781 0 L 1.300781 -1.335938 L 0.742188 -1.335938 Z M 0.742188 0 "/>
      </g>
    </g>
  </g>
  <g fill="#d9d9d9" fill-opacity="1">
    <g transform="translate(221.850686, 267.063929)">
      <g>
        <path d="M 2.882812 -5.535156 C 2.328125 -5.535156 1.882812 -5.359375 1.644531 -5.089844 L 2.03125 -8.355469 L 4.65625 -8.355469 L 4.65625 -8.875 L 1.496094 -8.875 L 0.964844 -4.246094 L 1.511719 -4.246094 C 1.683594 -4.753906 2.054688 -5.011719 2.824219 -5.011719 C 3.738281 -5.011719 4.183594 -4.617188 4.183594 -3.613281 L 4.183594 -1.78125 C 4.183594 -0.816406 3.601562 -0.394531 2.636719 -0.394531 C 1.871094 -0.410156 1.398438 -0.742188 1.125 -1.289062 L 0.644531 -1.015625 C 0.976562 -0.335938 1.644531 0.113281 2.636719 0.125 C 3.925781 0.125 4.765625 -0.542969 4.765625 -1.769531 L 4.765625 -3.640625 C 4.765625 -4.878906 4.097656 -5.535156 2.882812 -5.535156 Z M 2.882812 -5.535156 "/>
      </g>
    </g>
  </g>
  <g fill="#d9d9d9" fill-opacity="1">
    <g transform="translate(228.174044, 267.063929)">
      <g/>
    </g>
  </g>
  <g fill="#d9d9d9" fill-opacity="1">
    <g transform="translate(231.911317, 267.063929)">
      <g>
        <path d="M 4.703125 -8.355469 L 4.703125 -8.875 L 1.078125 -8.875 L 1.078125 0 L 1.660156 0 L 1.660156 -4.605469 L 4.457031 -4.605469 L 4.457031 -5.113281 L 1.660156 -5.113281 L 1.660156 -8.355469 Z M 4.703125 -8.355469 "/>
      </g>
    </g>
  </g>
  <g fill="#d9d9d9" fill-opacity="1">
    <g transform="translate(237.813973, 267.063929)">
      <g>
        <path d="M 1.078125 0 L 1.660156 0 L 1.660156 -5.335938 C 1.660156 -6.117188 1.609375 -7.230469 1.609375 -7.875 L 2.585938 -5.371094 C 2.898438 -4.605469 3.195312 -3.8125 3.503906 -3.046875 L 3.972656 -3.046875 C 4.285156 -3.8125 4.582031 -4.582031 4.890625 -5.359375 C 5.285156 -6.375 5.621094 -7.242188 5.878906 -7.875 C 5.878906 -7.242188 5.832031 -6.140625 5.832031 -5.359375 L 5.832031 0 L 6.414062 0 L 6.414062 -8.875 L 5.742188 -8.875 L 3.738281 -3.863281 L 1.746094 -8.875 L 1.078125 -8.875 Z M 1.078125 0 "/>
      </g>
    </g>
  </g>
</svg>